<?xml version="1.0" standalone="no"?>
<!DOCTYPE svg PUBLIC "-//W3C//DTD SVG 20010904//EN"
 "http://www.w3.org/TR/2001/REC-SVG-20010904/DTD/svg10.dtd">
<svg version="1.0" xmlns="http://www.w3.org/2000/svg"
 width="1600.000000pt" height="1600.000000pt" viewBox="0 0 1600.000000 1600.000000"
 preserveAspectRatio="xMidYMid meet">

<g transform="translate(0.000000,1600.000000) scale(0.100000,-0.100000)"
fill="#000000" stroke="none">
<path d="M8195 13490 c-58 -9 -81 -24 -99 -70 -24 -61 -20 -85 22 -130 37 -38
41 -40 102 -40 61 0 65 2 102 40 29 31 38 49 38 76 0 39 -22 98 -41 109 -22
14 -82 21 -124 15z"/>
<path d="M8644 13477 c-3 -8 0 -26 6 -41 39 -104 188 -191 283 -165 34 9 36
11 26 37 -26 69 -123 137 -236 166 -74 19 -72 19 -79 3z"/>
<path d="M7695 13461 c-77 -23 -132 -54 -173 -99 -38 -43 -51 -80 -31 -93 26
-16 103 -9 154 15 69 32 109 68 134 121 38 81 28 88 -84 56z"/>
<path d="M6625 13213 c-53 -13 -187 -64 -245 -93 -154 -77 -326 -217 -318
-258 15 -74 417 117 593 283 32 29 54 58 51 64 -7 11 -44 13 -81 4z"/>
<path d="M7106 13205 c-116 -44 -226 -116 -292 -194 -41 -47 -76 -123 -68
-144 15 -41 135 -27 251 29 128 61 271 225 261 298 -3 18 -10 21 -58 23 -30 1
-73 -4 -94 -12z"/>
<path d="M7775 13209 c-78 -23 -182 -135 -206 -222 -16 -59 9 -103 74 -136 46
-22 52 -23 119 -12 114 19 175 61 214 149 32 71 31 124 -3 172 -16 22 -38 44
-51 49 -27 13 -105 13 -147 0z"/>
<path d="M8511 13206 c-34 -19 -71 -85 -71 -126 1 -89 54 -166 143 -209 122
-59 243 -46 282 30 43 82 -42 231 -169 294 -56 28 -145 33 -185 11z"/>
<path d="M9190 13205 c-21 -25 15 -108 76 -174 93 -101 222 -171 344 -187 66
-9 94 7 86 49 -14 71 -113 182 -221 249 -108 67 -255 99 -285 63z"/>
<path d="M9770 13213 c-44 -8 -42 -18 17 -74 81 -77 195 -152 337 -219 126
-60 205 -85 237 -75 104 33 -230 279 -477 350 -47 14 -87 24 -88 24 0 -1 -12
-4 -26 -6z"/>
<path d="M10276 13171 c5 -5 92 -51 194 -101 102 -51 197 -98 212 -106 14 -8
31 -14 37 -14 21 0 10 15 -22 31 -18 9 -88 45 -157 81 -69 36 -147 73 -175 83
-27 10 -54 22 -59 27 -14 11 -43 10 -30 -1z"/>
<path d="M6116 13155 c-15 -8 -33 -15 -38 -15 -11 0 -196 -93 -317 -159 -27
-15 -69 -51 -59 -51 11 0 423 208 443 224 26 20 9 20 -29 1z"/>
<path d="M5393 12790 c-76 -42 -304 -197 -418 -284 -99 -76 -219 -185 -211
-193 17 -17 180 87 388 247 46 36 118 90 159 121 76 58 146 125 138 133 -2 3
-27 -8 -56 -24z"/>
<path d="M7159 12806 c-79 -22 -145 -66 -222 -145 -89 -91 -118 -144 -125
-228 -4 -58 -3 -64 25 -92 89 -88 326 -56 442 60 107 107 147 239 101 334 -32
67 -128 97 -221 71z"/>
<path d="M8155 12811 c-172 -30 -298 -246 -224 -386 25 -47 48 -68 107 -95
170 -77 409 -37 469 80 75 148 -48 366 -222 395 -74 12 -90 13 -130 6z"/>
<path d="M9155 12811 c-122 -30 -147 -144 -67 -306 38 -76 112 -140 207 -176
133 -52 248 -52 304 0 28 26 31 35 31 86 0 40 -8 72 -26 111 -29 62 -125 170
-190 215 -81 55 -194 86 -259 70z"/>
<path d="M6350 12801 c-110 -25 -243 -105 -357 -217 -81 -80 -123 -154 -123
-221 0 -49 17 -63 77 -63 171 0 393 162 482 350 35 72 48 127 35 140 -14 13
-76 19 -114 11z"/>
<path d="M10003 12803 c-29 -6 -35 -27 -22 -77 21 -78 73 -160 154 -242 116
-117 250 -184 369 -184 61 0 66 6 66 72 0 59 -35 122 -113 204 -137 146 -341
247 -454 227z"/>
<path d="M11005 12789 c39 -45 61 -65 140 -124 44 -33 129 -98 190 -145 60
-47 137 -104 170 -126 65 -45 165 -98 171 -91 9 9 -43 61 -139 140 -123 100
-164 130 -327 237 -69 45 -136 90 -150 100 -14 9 -37 21 -50 25 l-25 8 20 -24z"/>
<path d="M5683 12766 c-159 -59 -363 -217 -477 -369 -40 -53 -47 -87 -18 -87
28 0 169 72 247 125 198 135 395 322 368 349 -12 12 -58 5 -120 -18z"/>
<path d="M10640 12763 c0 -23 190 -209 280 -274 154 -112 314 -197 348 -184
38 14 -145 229 -273 319 -173 122 -355 194 -355 139z"/>
<path d="M5470 12255 c-105 -27 -210 -93 -324 -204 -129 -126 -196 -232 -199
-316 -3 -61 24 -88 86 -87 207 4 559 405 513 585 -8 32 -22 36 -76 22z"/>
<path d="M6342 12259 c-139 -27 -326 -192 -395 -349 -39 -87 -43 -132 -17
-185 29 -60 80 -87 177 -93 196 -13 397 128 467 326 15 40 25 246 14 257 -7 8
-126 41 -168 47 -19 3 -54 2 -78 -3z"/>
<path d="M7455 12261 c-105 -18 -234 -137 -275 -254 -26 -74 -29 -191 -7 -238
37 -76 136 -125 277 -135 157 -12 316 44 390 137 123 156 84 389 -76 460 -72
32 -214 46 -309 30z"/>
<path d="M8747 12260 c-69 -9 -128 -45 -169 -105 -75 -111 -60 -282 33 -389
89 -102 338 -164 497 -123 156 41 219 175 158 342 -59 163 -173 256 -337 275
-92 11 -97 11 -182 0z"/>
<path d="M4825 12224 c-158 -95 -337 -264 -432 -407 -51 -76 -74 -140 -57
-157 19 -19 177 97 318 235 142 137 274 337 239 358 -5 3 -36 -10 -68 -29z"/>
<path d="M9920 12249 c-30 -5 -58 -15 -63 -22 -4 -6 -6 -66 -5 -132 4 -114 6
-123 38 -185 65 -123 160 -201 303 -251 149 -52 275 -32 319 51 57 106 -73
350 -249 467 -118 78 -200 95 -343 72z"/>
<path d="M10907 12253 c-4 -3 -7 -36 -7 -72 0 -52 6 -79 29 -128 71 -148 218
-301 365 -378 152 -79 244 -22 189 117 -39 100 -159 246 -277 335 -99 75 -276
150 -299 126z"/>
<path d="M11545 12240 c-17 -28 94 -196 214 -323 110 -117 304 -267 343 -267
59 0 -45 179 -193 331 -87 90 -165 154 -269 221 -80 51 -85 53 -95 38z"/>
<path d="M4005 11547 c-170 -216 -298 -395 -382 -537 -69 -116 -70 -121 -30
-114 82 14 107 37 248 234 136 188 216 314 234 365 20 59 32 155 19 155 -5 -1
-45 -47 -89 -103z"/>
<path d="M12340 11629 c0 -65 40 -180 90 -255 27 -42 50 -78 50 -80 0 -2 7
-12 14 -21 8 -10 55 -74 103 -142 48 -69 111 -149 138 -179 45 -49 55 -55 98
-58 26 -2 47 -1 47 4 0 4 -33 62 -73 128 -98 159 -327 472 -434 593 -32 36
-33 36 -33 10z"/>
<path d="M5383 11586 c-94 -44 -147 -88 -225 -185 -138 -172 -188 -349 -128
-449 33 -54 75 -74 150 -70 94 5 165 42 259 137 122 124 211 300 211 419 0
142 -128 212 -267 148z"/>
<path d="M6590 11591 c-124 -46 -215 -132 -282 -267 -37 -75 -42 -95 -46 -169
-4 -76 -2 -90 22 -139 48 -99 130 -136 305 -137 172 -2 263 28 364 121 93 85
139 185 139 305 1 179 -89 277 -270 296 -115 12 -182 9 -232 -10z"/>
<path d="M8031 11594 c-73 -20 -110 -44 -176 -116 -69 -77 -96 -144 -96 -243
-1 -118 23 -179 99 -251 63 -60 160 -90 332 -104 185 -14 325 24 410 113 50
52 70 93 81 174 18 130 -19 233 -121 332 -80 77 -141 96 -340 104 -102 4 -148
2 -189 -9z"/>
<path d="M9525 11592 c-80 -30 -94 -40 -126 -90 -37 -59 -49 -104 -50 -189 -2
-117 42 -213 136 -302 66 -63 137 -96 264 -123 237 -50 398 16 431 176 39 190
-133 457 -336 522 -27 8 -98 17 -159 20 -91 4 -119 1 -160 -14z"/>
<path d="M10925 11600 c-46 -10 -72 -27 -101 -66 -25 -32 -28 -44 -27 -112 0
-68 5 -87 38 -162 53 -116 94 -176 173 -254 81 -79 163 -125 236 -133 69 -7
98 0 139 37 115 100 48 337 -153 541 -112 114 -223 168 -305 149z"/>
<path d="M4525 11576 c-142 -65 -317 -274 -391 -467 -20 -53 -24 -81 -22 -135
3 -63 5 -69 28 -77 39 -14 100 8 172 62 170 129 351 452 336 601 -3 32 -6 35
-38 37 -20 1 -57 -8 -85 -21z"/>
<path d="M11804 11583 c-18 -18 -14 -68 12 -162 53 -186 253 -454 385 -516 65
-30 93 -31 119 -5 57 57 -12 262 -149 444 -99 132 -196 209 -299 240 -47 13
-53 13 -68 -1z"/>
<path d="M5675 10836 c-131 -62 -241 -183 -303 -334 -31 -77 -35 -96 -36 -186
-1 -92 1 -105 26 -146 54 -93 117 -125 243 -125 120 0 180 28 285 134 109 110
170 246 170 379 0 92 -25 156 -85 216 -86 86 -200 109 -300 62z"/>
<path d="M4500 10833 c-29 -11 -67 -38 -106 -77 -138 -138 -234 -348 -234
-513 0 -93 10 -121 60 -168 28 -27 38 -30 93 -30 40 0 75 7 98 18 128 64 263
259 314 453 37 144 5 277 -77 314 -51 23 -87 24 -148 3z"/>
<path d="M7207 10840 c-208 -26 -371 -241 -354 -467 9 -118 -21 -108 326 -104
240 2 331 -1 456 -15 179 -20 162 -26 196 74 17 50 20 81 17 155 -4 116 -34
185 -111 261 -69 67 -122 82 -307 91 -74 4 -142 8 -150 9 -8 2 -41 0 -73 -4z"/>
<path d="M10575 10838 c-74 -27 -146 -99 -176 -173 -18 -45 -14 -193 6 -256
66 -206 245 -368 416 -377 93 -6 160 18 219 77 59 59 75 111 67 224 -12 192
-154 410 -317 486 -62 28 -165 38 -215 19z"/>
<path d="M3749 10812 c-58 -37 -90 -77 -166 -205 -113 -189 -166 -333 -167
-454 -1 -91 15 -113 63 -93 35 14 111 84 157 145 119 155 220 425 212 570 -3
56 -5 60 -28 63 -15 2 -44 -9 -71 -26z"/>
<path d="M8804 10819 c-75 -29 -138 -88 -176 -167 -57 -119 -50 -283 16 -396
57 -97 187 -184 312 -207 33 -7 124 -12 204 -13 181 -1 242 17 327 100 66 65
95 127 101 219 14 222 -131 430 -330 474 -24 5 -124 10 -223 10 -157 0 -187
-2 -231 -20z"/>
<path d="M11794 10821 c-202 -92 -38 -618 239 -763 124 -65 234 -9 253 129 26
196 -160 552 -330 632 -56 26 -108 27 -162 2z"/>
<path d="M12600 10746 c0 -133 62 -322 156 -473 56 -92 177 -217 218 -227 38
-9 48 2 54 63 10 111 -36 258 -146 459 -83 153 -190 262 -256 262 l-26 0 0
-84z"/>
<path d="M3750 9991 c-63 -34 -138 -124 -185 -224 -69 -146 -90 -238 -90 -392
0 -115 3 -135 23 -177 18 -35 32 -50 62 -62 75 -30 153 18 235 145 104 160
169 453 136 611 -22 102 -97 143 -181 99z"/>
<path d="M4808 10000 c-130 -39 -250 -190 -299 -375 -26 -98 -35 -232 -19
-292 13 -48 55 -133 67 -133 3 0 38 30 77 68 113 107 271 236 399 325 l118 82
-4 65 c-7 117 -71 218 -163 256 -36 15 -132 17 -176 4z"/>
<path d="M9943 9976 c-77 -29 -120 -61 -166 -123 -52 -71 -67 -127 -67 -247 0
-163 38 -263 137 -357 94 -90 189 -129 313 -129 115 0 188 31 267 112 75 77
97 147 90 288 -3 58 -12 128 -21 155 -75 239 -337 381 -553 301z"/>
<path d="M11438 9975 c-55 -29 -113 -100 -130 -159 -7 -23 -12 -90 -12 -151 0
-180 49 -307 161 -417 80 -78 148 -111 241 -116 184 -10 271 98 259 323 -10
188 -62 319 -172 431 -54 55 -83 76 -128 92 -79 30 -158 28 -219 -3z"/>
<path d="M12568 9977 c-55 -45 -77 -150 -59 -282 44 -318 191 -575 330 -578
49 -1 85 25 113 81 20 41 23 62 22 162 -1 215 -85 443 -208 565 -78 76 -147
95 -198 52z"/>
<path d="M3147 9960 c-48 -38 -105 -217 -171 -539 -45 -219 -54 -291 -34 -291
30 0 99 61 117 103 18 42 81 240 120 372 49 172 67 357 35 369 -26 10 -40 7
-67 -14z"/>
<path d="M13220 9955 c-30 -36 17 -277 110 -570 53 -170 72 -207 120 -239 83
-55 83 -53 14 294 -36 181 -99 402 -134 471 -28 53 -84 76 -110 44z"/>
<path d="M4015 9070 c-92 -45 -166 -171 -200 -338 -21 -105 -17 -292 9 -367
18 -52 64 -126 81 -131 6 -2 42 63 81 144 82 168 157 295 256 432 37 52 68
104 68 115 0 39 -65 116 -122 146 -48 24 -121 24 -173 -1z"/>
<path d="M3157 9038 c-45 -47 -84 -129 -113 -233 -27 -99 -28 -392 -1 -480 47
-155 82 -185 146 -123 97 95 151 335 137 615 -7 139 -22 202 -58 240 -33 35
-65 29 -111 -19z"/>
<path d="M10885 9067 c-206 -68 -306 -291 -250 -559 32 -151 106 -260 214
-317 148 -77 298 -56 410 57 125 127 156 355 78 569 -59 159 -183 255 -337
260 -41 2 -93 -3 -115 -10z"/>
<path d="M12255 9061 c-58 -35 -111 -105 -136 -177 -21 -60 -24 -86 -23 -209
0 -160 15 -237 66 -342 77 -158 202 -217 326 -154 106 54 171 227 157 420 -16
227 -97 401 -212 460 -54 27 -136 28 -178 2z"/>
<path d="M13183 9055 c-71 -50 -93 -348 -43 -597 11 -53 30 -122 42 -152 23
-61 86 -140 117 -149 79 -20 151 283 122 508 -24 184 -71 305 -143 371 -42 37
-63 42 -95 19z"/>
<path d="M4420 8717 l0 -44 94 -6 c140 -8 208 -52 235 -152 14 -53 15 -1521 0
-1584 -22 -99 -87 -141 -230 -149 l-89 -5 0 -43 0 -44 496 0 495 0 -3 42 -3
41 -75 2 c-137 4 -204 35 -241 112 -24 48 -24 49 -27 451 l-3 403 263 -3 c314
-5 341 -11 423 -91 56 -55 87 -120 100 -210 l7 -47 54 0 54 0 0 365 0 365 -55
0 c-51 0 -55 -2 -55 -24 0 -55 -35 -131 -81 -178 -75 -75 -105 -81 -431 -86
l-278 -4 0 421 0 421 311 0 c337 0 405 -8 503 -57 72 -37 145 -116 188 -203
19 -41 38 -83 42 -93 5 -15 15 -18 58 -15 l53 3 0 225 0 225 -902 3 -903 2 0
-43z"/>
<path d="M7120 8750 c0 -6 9 -28 20 -50 11 -22 20 -48 20 -59 0 -11 -22 -75
-49 -143 -54 -134 -104 -261 -356 -893 -189 -473 -257 -624 -316 -703 -45 -59
-114 -108 -166 -118 -31 -6 -33 -8 -33 -50 l0 -44 355 0 355 0 0 44 0 43 -57
7 c-89 10 -156 45 -187 99 -55 93 -43 171 71 470 l57 147 404 -2 404 -3 30
-70 c143 -330 168 -404 168 -489 0 -52 -3 -61 -33 -91 -37 -37 -81 -52 -174
-62 l-63 -6 0 -43 0 -44 430 0 430 0 0 43 0 44 -58 16 c-126 35 -180 117 -342
522 -16 39 -53 129 -83 200 -29 72 -132 317 -226 545 -95 228 -195 467 -221
530 -27 63 -53 127 -59 143 l-11 27 -155 0 c-101 0 -155 -4 -155 -10z m140
-327 c18 -43 52 -125 75 -183 23 -58 88 -215 144 -349 55 -134 101 -247 101
-252 0 -5 -155 -9 -345 -9 -190 0 -345 3 -345 6 0 7 69 194 209 569 56 149
104 276 106 283 9 26 24 9 55 -65z"/>
<path d="M8550 8716 l0 -43 81 -6 c106 -7 164 -36 199 -98 l25 -44 3 -769 c2
-542 -1 -786 -9 -824 -21 -102 -99 -152 -241 -152 l-58 0 0 -45 0 -46 668 3
667 4 94 27 c234 68 388 206 437 391 21 78 18 211 -6 282 -56 162 -193 272
-420 338 -47 13 -111 27 -143 31 -56 7 -80 25 -33 25 47 0 218 51 284 84 117
59 202 150 235 251 72 220 -25 440 -237 543 -179 86 -239 92 -953 92 l-593 0
0 -44z m1115 -61 c126 -33 206 -90 275 -197 47 -71 64 -150 58 -265 -7 -149
-70 -248 -198 -313 -98 -49 -168 -60 -407 -60 l-213 0 0 425 0 425 213 0 c158
0 228 -4 272 -15z m28 -954 c179 -47 317 -164 358 -303 20 -68 29 -178 19
-251 -20 -159 -82 -252 -203 -307 -129 -58 -395 -79 -530 -41 -77 21 -111 48
-138 106 -17 37 -19 72 -19 434 l0 394 218 -6 c176 -4 232 -9 295 -26z"/>
<path d="M2824 8075 c-3 -26 -1 -101 5 -168 6 -67 16 -183 21 -257 12 -155 49
-450 59 -466 12 -21 70 4 88 39 34 62 20 523 -23 730 -22 108 -49 146 -116
162 -25 6 -27 5 -34 -40z"/>
<path d="M3458 8097 c-38 -32 -74 -93 -95 -162 -25 -82 -24 -310 1 -410 43
-172 105 -278 187 -324 42 -23 50 -24 85 -13 21 6 45 21 52 33 7 11 18 77 23
147 5 70 19 179 30 242 26 144 26 162 -1 252 -39 126 -93 218 -142 244 -42 22
-108 18 -140 -9z"/>
<path d="M11642 8090 c-99 -45 -180 -164 -222 -330 -18 -69 -21 -105 -18 -195
6 -138 28 -202 101 -282 65 -70 130 -103 208 -103 174 0 295 137 345 388 27
142 13 269 -42 377 -37 70 -70 103 -139 136 -73 35 -165 39 -233 9z"/>
<path d="M12825 8079 c-46 -41 -111 -173 -132 -274 -13 -60 -18 -126 -18 -260
1 -165 3 -185 24 -238 29 -73 87 -137 125 -137 131 0 240 186 276 471 19 149
-10 305 -72 396 -39 58 -64 73 -120 73 -39 0 -54 -6 -83 -31z"/>
<path d="M13558 8094 c-27 -12 -43 -28 -59 -60 -29 -61 -56 -233 -70 -443 -13
-195 -7 -327 17 -377 16 -33 61 -58 82 -45 38 23 113 927 77 937 -5 2 -27 -4
-47 -12z"/>
<path d="M3182 7112 c-26 -60 -28 -211 -3 -342 38 -197 100 -337 188 -422 58
-57 96 -74 117 -53 46 46 27 344 -33 540 -51 163 -135 283 -212 303 -41 10
-41 10 -57 -26z"/>
<path d="M12266 7133 c-90 -23 -209 -158 -261 -297 -49 -131 -70 -325 -45
-417 35 -124 145 -183 261 -140 181 68 309 330 297 610 -6 134 -35 198 -110
237 -26 13 -102 17 -142 7z"/>
<path d="M10887 7120 c-65 -17 -136 -58 -141 -83 -3 -12 -10 -78 -16 -147 -14
-157 -32 -262 -71 -418 l-31 -122 23 -20 c27 -22 118 -59 166 -67 46 -8 148
14 207 44 109 55 212 200 250 354 21 84 21 211 0 272 -21 61 -91 139 -151 167
-54 25 -173 35 -236 20z"/>
<path d="M13188 7122 c-82 -35 -179 -210 -221 -397 -23 -104 -40 -280 -33
-333 18 -125 23 -132 79 -108 140 58 273 390 269 671 -1 115 -18 169 -52 172
-14 1 -32 -1 -42 -5z"/>
<path d="M3000 6735 c0 -5 5 -17 10 -25 5 -8 10 -10 10 -5 0 6 -5 17 -10 25
-5 8 -10 11 -10 5z"/>
<path d="M4850 6448 c-82 -11 -140 -43 -162 -88 -16 -32 -18 -75 -18 -453 0
-502 -4 -487 123 -531 l62 -21 2595 -3 c1712 -2 2634 1 2709 7 127 12 190 35
225 84 20 27 21 43 24 449 3 409 2 421 -18 463 -26 54 -75 80 -175 94 -91 14
-5273 12 -5365 -1z m5370 -88 c106 -15 100 14 100 -452 0 -250 -4 -406 -10
-418 -25 -46 65 -44 -2705 -48 -1676 -1 -2652 1 -2709 7 -48 6 -99 17 -112 26
l-24 15 0 415 c0 460 -3 439 68 450 20 4 42 8 47 10 25 8 5286 4 5345 -5z"/>
<path d="M7742 6254 c-40 -28 -22 -94 27 -94 53 0 80 60 43 93 -23 21 -41 21
-70 1z"/>
<path d="M8886 6254 c-33 -33 -12 -94 33 -94 55 0 82 65 39 94 -29 20 -52 20
-72 0z"/>
<path d="M5283 6252 c-38 -3 -42 -5 -41 -30 0 -24 -188 -507 -227 -583 -9 -16
-34 -40 -56 -54 -22 -14 -37 -30 -34 -35 4 -6 60 -10 126 -10 95 0 119 3 119
14 0 8 -12 17 -27 21 -68 17 -80 73 -39 180 l23 60 142 3 142 3 30 -68 c36
-80 47 -137 29 -158 -6 -8 -27 -17 -46 -21 -19 -3 -34 -12 -34 -20 0 -11 28
-14 145 -14 123 0 145 2 145 15 0 9 -10 19 -22 24 -13 5 -31 18 -41 29 -16 18
-180 395 -243 562 -14 36 -31 70 -37 75 -7 6 -31 9 -54 7z m51 -241 c31 -73
53 -138 50 -143 -7 -11 -222 -9 -229 2 -3 4 16 61 41 127 25 65 50 129 55 142
6 15 13 21 19 15 5 -5 34 -69 64 -143z"/>
<path d="M8552 6070 c-24 -28 -57 -53 -77 -60 -19 -6 -35 -16 -35 -21 0 -11
41 -22 66 -17 18 3 19 -8 24 -195 l5 -199 28 -24 c22 -18 39 -24 75 -23 63 1
126 21 130 41 3 14 -6 16 -56 15 -93 -3 -92 -5 -92 204 l0 179 58 1 c31 1 63
1 70 0 6 -1 12 7 12 19 0 18 -6 20 -69 20 l-70 0 -3 52 c-2 28 -7 53 -13 54
-5 2 -29 -19 -53 -46z"/>
<path d="M5808 5999 c-34 -21 -55 -52 -59 -89 -8 -74 19 -107 133 -162 102
-49 121 -67 120 -109 -2 -70 -90 -103 -154 -57 -17 11 -39 41 -50 65 -10 23
-23 43 -28 43 -6 0 -10 -28 -10 -63 l0 -63 53 -17 c116 -37 209 -10 248 69 19
40 20 51 10 83 -14 49 -40 72 -131 116 -96 48 -120 69 -120 111 0 40 30 64 80
64 47 0 78 -23 100 -76 27 -62 42 -56 38 13 -3 53 -6 59 -33 72 -16 9 -59 17
-95 18 -53 3 -72 0 -102 -18z"/>
<path d="M6251 6002 c-49 -24 -74 -62 -74 -112 0 -56 34 -90 145 -146 95 -48
123 -77 112 -118 -24 -96 -168 -81 -204 22 -22 63 -40 55 -40 -18 0 -57 1 -60
32 -76 53 -28 146 -30 202 -6 38 17 50 30 67 67 38 85 -1 149 -123 205 -90 41
-118 65 -118 102 0 40 32 68 79 68 48 0 84 -27 105 -80 23 -58 38 -51 34 17
-3 55 -5 59 -38 75 -46 23 -135 23 -179 0z"/>
<path d="M6754 6006 c-17 -8 -48 -29 -69 -47 -102 -90 -102 -277 0 -367 127
-112 314 -66 381 93 20 48 18 151 -5 200 -20 46 -79 101 -127 121 -42 18 -139
17 -180 0z m150 -37 c15 -12 39 -44 53 -72 24 -46 27 -64 28 -147 0 -108 -15
-149 -65 -175 -109 -56 -209 40 -218 210 -5 98 8 144 49 180 40 33 114 35 153
4z"/>
<path d="M7332 6007 c-53 -17 -118 -81 -136 -134 -19 -55 -21 -146 -4 -194 40
-119 182 -182 293 -130 45 21 105 76 105 97 0 19 -9 17 -55 -11 -30 -19 -54
-25 -96 -25 -74 0 -115 27 -151 99 -66 129 -8 281 107 281 62 0 73 -7 101 -61
19 -39 29 -49 49 -49 34 0 53 39 37 75 -25 54 -158 82 -250 52z"/>
<path d="M7728 5998 c-38 -12 -68 -26 -68 -32 0 -7 16 -18 35 -25 l35 -12 0
-163 c0 -145 -2 -165 -18 -179 -10 -10 -28 -17 -40 -17 -13 0 -22 -6 -22 -15
0 -12 20 -15 119 -15 123 0 159 11 102 31 -17 6 -36 19 -41 29 -6 11 -10 108
-10 219 0 155 -3 201 -12 200 -7 -1 -43 -10 -80 -21z"/>
<path d="M8066 6004 c-50 -18 -66 -32 -82 -71 -10 -24 -11 -39 -3 -62 12 -35
14 -35 58 -20 34 12 37 24 19 65 -11 24 -10 29 15 50 40 34 108 33 143 -1 22
-22 25 -32 22 -86 l-3 -61 -89 -29 c-142 -47 -186 -82 -186 -149 0 -61 53
-110 120 -110 33 0 112 34 131 56 16 20 39 17 39 -4 0 -26 31 -52 62 -52 23 0
73 30 90 54 11 16 -2 27 -23 21 -43 -14 -49 7 -49 172 0 175 -9 205 -65 229
-43 18 -148 17 -199 -2z m172 -290 c-3 -69 -6 -79 -29 -96 -84 -63 -193 -1
-148 84 10 19 138 86 167 87 10 1 12 -18 10 -75z"/>
<path d="M8881 6000 c-35 -11 -68 -23 -73 -28 -5 -5 9 -17 32 -27 l40 -18 0
-162 c0 -144 -2 -164 -18 -178 -10 -10 -28 -17 -40 -17 -13 0 -22 -6 -22 -15
0 -12 20 -15 120 -15 128 0 151 10 87 40 l-32 15 -3 213 c-2 160 -5 212 -15
211 -6 0 -41 -9 -76 -19z"/>
<path d="M9246 6000 c-88 -44 -136 -124 -136 -225 0 -150 106 -252 252 -242
56 4 74 10 115 39 121 87 141 279 39 380 -69 67 -188 88 -270 48z m175 -50
c94 -99 94 -326 -1 -375 -106 -55 -207 42 -218 209 -5 88 9 140 51 178 24 23
38 28 80 28 46 0 54 -4 88 -40z"/>
<path d="M9728 5998 c-38 -12 -68 -25 -68 -30 0 -4 16 -16 35 -25 l35 -17 0
-161 c0 -144 -2 -164 -18 -178 -10 -10 -29 -17 -41 -17 -14 0 -21 -5 -19 -12
3 -9 40 -14 126 -16 102 -2 122 0 122 12 0 9 -11 16 -27 18 -44 5 -53 37 -53
189 0 151 1 154 73 184 53 22 101 19 133 -9 27 -23 28 -27 32 -147 5 -156 -6
-207 -48 -216 -17 -3 -30 -12 -30 -19 0 -11 25 -14 120 -14 95 0 120 3 120 14
0 7 -13 16 -29 19 -42 9 -51 47 -51 212 0 131 -2 145 -23 176 -12 18 -34 39
-47 46 -57 29 -163 6 -217 -46 -30 -29 -33 -27 -33 19 0 46 1 46 -92 18z"/>
<path d="M3164 6233 c24 -97 300 -666 396 -816 l40 -62 0 107 c0 132 -15 180
-141 429 -111 222 -181 329 -214 329 -5 0 -28 9 -49 21 l-39 20 7 -28z"/>
<path d="M3772 6234 c-17 -8 -38 -51 -46 -94 -17 -94 69 -349 169 -505 71
-110 191 -205 259 -205 27 0 76 39 76 61 0 6 -33 64 -74 128 -106 168 -170
292 -241 464 l-62 152 -34 2 c-19 1 -40 -1 -47 -3z"/>
<path d="M13250 6230 c-8 -5 -30 -14 -48 -20 -45 -17 -119 -131 -232 -360
-116 -237 -132 -287 -128 -407 2 -51 5 -93 9 -93 23 0 335 617 400 794 29 78
29 102 -1 86z"/>
<path d="M11455 6217 c-106 -36 -187 -99 -259 -205 -86 -125 -131 -313 -106
-433 50 -234 341 -205 525 51 59 81 71 107 100 206 67 232 6 384 -158 391 -34
1 -80 -3 -102 -10z"/>
<path d="M12552 6209 c-128 -64 -245 -234 -318 -463 -60 -192 -36 -326 59
-326 69 0 173 80 246 189 131 196 214 479 167 569 -28 55 -83 66 -154 31z"/>
<path d="M3819 5369 c-16 -30 -3 -81 42 -172 100 -201 307 -449 413 -496 47
-20 66 -20 66 0 0 6 -18 57 -41 114 -75 194 -246 443 -362 531 -65 48 -100 55
-118 23z"/>
<path d="M10499 5354 c-140 -53 -261 -179 -307 -317 -25 -75 -31 -231 -11
-270 36 -69 98 -102 189 -101 210 4 411 196 465 446 18 83 15 118 -16 185 -28
59 -81 83 -180 82 -54 0 -92 -7 -140 -25z"/>
<path d="M12561 5369 c-117 -46 -343 -361 -426 -591 -41 -115 -34 -127 50 -83
68 37 145 114 239 240 125 168 195 295 204 370 7 66 -13 86 -67 64z"/>
<path d="M11728 5356 c-197 -71 -369 -324 -385 -568 -8 -127 2 -134 135 -99
91 24 167 69 244 146 140 140 223 328 204 460 -4 25 -14 52 -22 60 -19 19
-124 20 -176 1z"/>
<path d="M4550 5106 c0 -22 67 -137 113 -193 65 -81 142 -144 220 -182 62 -30
172 -57 161 -39 -3 5 -40 35 -83 66 -42 31 -85 64 -96 73 -11 10 -40 34 -65
54 -42 35 -123 108 -212 193 -21 20 -38 33 -38 28z"/>
<path d="M9514 4625 c-198 -48 -331 -237 -303 -431 12 -84 37 -120 108 -152
85 -40 180 -42 279 -7 137 49 225 127 284 252 51 109 60 190 26 247 -13 22
-35 48 -49 59 -59 43 -234 59 -345 32z"/>
<path d="M10798 4625 c-26 -7 -68 -23 -94 -35 -48 -24 -194 -134 -194 -148 0
-4 -14 -23 -30 -42 -96 -111 -129 -302 -63 -368 23 -23 30 -24 91 -19 132 11
263 84 376 209 97 107 164 276 142 361 -12 48 -128 70 -228 42z"/>
<path d="M11757 4625 c-141 -39 -374 -267 -472 -464 -32 -63 -47 -132 -33
-147 12 -11 113 25 191 70 81 46 180 127 252 205 22 24 45 49 50 55 22 23 72
103 93 148 28 61 29 123 3 138 -23 12 -23 12 -84 -5z"/>
<path d="M4153 4623 c-20 -8 -15 -28 15 -59 15 -16 45 -51 66 -78 70 -87 207
-225 305 -309 53 -45 98 -84 101 -87 11 -13 77 -60 84 -60 8 0 -3 42 -13 50
-3 3 -22 28 -41 55 -19 28 -46 64 -59 80 -42 52 -375 376 -406 396 -32 20 -33
20 -52 12z"/>
<path d="M4591 4612 c-18 -34 -13 -70 23 -145 59 -127 194 -275 331 -362 70
-45 180 -87 218 -83 30 3 32 5 31 41 -4 118 -246 423 -419 526 -74 45 -166 56
-184 23z"/>
<path d="M12166 4533 c-206 -197 -328 -325 -385 -401 -56 -77 -73 -112 -53
-112 11 0 227 182 300 253 90 88 272 303 272 321 0 11 -9 16 -26 16 -19 0 -49
-21 -108 -77z"/>
<path d="M5430 4447 c0 -20 50 -118 78 -152 117 -145 242 -235 391 -279 73
-22 95 -20 128 8 24 21 28 32 29 83 3 89 -1 94 -112 132 -130 44 -316 122
-426 177 -57 29 -88 40 -88 31z"/>
<path d="M6915 4025 c57 -17 171 -20 180 -5 4 6 -14 10 -48 10 -30 0 -83 2
-118 5 l-64 5 50 -15z"/>
<path d="M6373 3983 c-36 -7 -66 -52 -59 -91 17 -105 124 -237 268 -333 136
-89 250 -120 299 -80 21 17 24 27 23 88 -1 90 -36 161 -119 245 -128 127 -290
195 -412 171z"/>
<path d="M8750 3979 c-145 -16 -248 -126 -257 -274 -4 -62 -1 -76 24 -125 39
-76 77 -94 193 -88 76 4 92 8 152 42 232 129 227 419 -7 445 -27 4 -75 3 -105
0z"/>
<path d="M9922 3980 c-24 -5 -77 -26 -117 -46 -86 -43 -203 -153 -235 -222
-43 -90 -44 -209 -4 -239 70 -51 285 47 435 196 78 79 117 144 126 210 4 32 1
43 -23 70 -25 27 -37 33 -84 36 -30 2 -74 0 -98 -5z"/>
<path d="M5484 3966 c-26 -67 112 -255 261 -353 131 -87 306 -154 346 -132 51
27 -8 128 -161 278 -90 89 -152 134 -242 176 -91 44 -193 59 -204 31z"/>
<path d="M10830 3961 c-112 -36 -196 -89 -302 -190 -150 -141 -242 -301 -174
-301 34 0 152 38 211 68 192 97 384 296 397 412 3 23 -1 25 -37 27 -22 1 -65
-6 -95 -16z"/>
<path d="M4956 3954 c-4 -11 -13 -14 -31 -10 -42 11 -32 -33 18 -80 144 -137
289 -242 443 -325 98 -53 114 -58 114 -33 0 13 7 15 34 10 19 -4 37 -3 40 2
11 18 -211 217 -353 316 -86 61 -222 136 -245 136 -8 0 -17 -7 -20 -16z"/>
<path d="M7538 3961 c-46 -15 -87 -51 -109 -94 -30 -57 -23 -155 15 -220 76
-129 236 -201 375 -167 91 22 137 100 129 219 -6 78 -31 131 -85 182 -64 61
-116 82 -213 86 -47 1 -97 -2 -112 -6z"/>
<path d="M11454 3951 c-63 -21 -185 -95 -302 -184 -106 -80 -282 -243 -282
-261 0 -24 80 -6 161 35 96 48 245 148 339 227 37 32 84 70 104 86 36 27 76
80 76 101 0 16 -43 14 -96 -4z"/>
<path d="M8101 3428 c-70 -36 -86 -65 -86 -158 0 -71 3 -82 30 -121 17 -23 50
-53 75 -67 39 -20 55 -23 116 -19 80 4 114 23 162 84 24 33 27 45 27 114 0 62
-4 83 -21 106 -53 73 -217 106 -303 61z"/>
<path d="M9068 3426 c-71 -29 -127 -73 -174 -137 -69 -95 -80 -196 -23 -219
119 -50 370 110 410 262 19 68 5 93 -61 107 -71 15 -87 14 -152 -13z"/>
<path d="M5863 3425 c-5 -7 -19 -15 -33 -17 l-25 -3 35 -34 c79 -75 124 -103
305 -191 105 -50 202 -102 216 -116 23 -22 30 -24 48 -15 12 7 21 21 21 32 0
18 5 21 30 17 40 -6 38 4 -7 40 -75 58 -355 215 -438 246 -22 8 -64 24 -92 34
-43 16 -54 18 -60 7z"/>
<path d="M6407 3422 c-24 -26 -22 -34 26 -96 68 -89 242 -195 397 -241 65 -20
82 -21 113 -12 21 7 37 17 37 23 0 33 -79 108 -207 196 -197 135 -322 179
-366 130z"/>
<path d="M7180 3427 c-21 -11 -25 -20 -23 -54 4 -96 106 -221 225 -279 86 -40
145 -45 197 -13 33 20 33 22 28 71 -14 111 -129 235 -256 274 -58 17 -138 18
-171 1z"/>
<path d="M9895 3422 c-70 -24 -129 -60 -237 -145 -149 -117 -209 -181 -193
-208 15 -23 171 18 285 76 73 37 177 105 217 143 51 48 95 123 82 139 -16 18
-94 16 -154 -5z"/>
<path d="M10546 3422 c-108 -31 -508 -251 -571 -313 l-30 -29 30 0 c17 -1 41
-7 54 -14 22 -12 27 -11 47 9 13 13 114 68 226 123 169 83 214 109 268 159 59
55 63 61 45 70 -14 7 -35 5 -69 -5z"/>
<path d="M10045 3016 c-17 -12 -52 -28 -80 -35 -27 -6 -102 -28 -165 -47 -63
-19 -160 -49 -215 -65 -131 -39 -187 -60 -181 -66 9 -10 266 56 436 112 63 21
151 49 195 62 94 28 106 37 68 50 -23 9 -34 6 -58 -11z"/>
<path d="M7238 3024 c-31 -10 -30 -36 4 -72 68 -70 311 -167 358 -142 10 5 28
10 39 10 59 0 -28 74 -172 146 -112 55 -179 72 -229 58z"/>
<path d="M7812 3014 c-48 -33 -16 -146 51 -181 46 -23 143 -32 191 -18 39 12
41 14 39 51 -4 53 -48 114 -103 142 -54 27 -144 30 -178 6z"/>
<path d="M8485 3023 c-58 -14 -132 -107 -137 -172 -3 -30 0 -35 27 -43 42 -12
110 -1 178 29 62 28 91 63 102 124 10 53 -11 69 -88 68 -34 -1 -71 -4 -82 -6z"/>
<path d="M9096 3014 c-22 -8 -86 -39 -142 -70 -112 -62 -176 -116 -157 -135
18 -18 173 24 273 74 98 49 184 122 160 137 -22 14 -89 11 -134 -6z"/>
<path d="M6331 3011 c-19 -12 -7 -27 26 -35 16 -4 118 -35 228 -71 110 -35
225 -69 255 -75 30 -7 64 -16 75 -21 11 -4 37 -10 58 -14 21 -3 46 -9 55 -12
14 -5 15 -3 5 7 -13 14 -177 67 -526 170 -54 16 -109 36 -122 44 -28 18 -35
19 -54 7z"/>
</g>
</svg>
